# xmcd
# Track frame offsets:
# 150
# 7433
# 17499
# 31328
# 47862
# 62493
# 74478
# 84557
# 96845
# 111815
# 122797
# 132981
#
# Disc length: 1954 seconds
# Revision: 0
# Processed by: cddbd v1.5.1PL2 Copyright (c) Steve Scherf et al.
# Submitted via: VisiTrax 2.10.0.248 - For more info visit www.synapsa.com
#
DISCID=a507a00c
DTITLE=Various Artist - Grand Ole Opry Live Classics
DYEAR=1964
DGENRE=country
TTITLE0=Sonny James - Just a Closer Walk with Thee
TTITLE1=Charlie Louvin - Prayer is the Key to Heaven
TTITLE2=Flatt and Scruggs - Father's Table Grace
TTITLE3=Roy Acuff - Great Speckled Bird
TTITLE4=Bill Monroe - Swing Low Sweet Chariot
TTITLE5=Osborne Bros - Cryin' Holy to the Lord
TTITLE6=Cooper - Glory Land March
TTITLE7=Porter Wagoner - If Jesus Came to Your House
TTITLE8=Willie Nelson - Family Bible
TTITLE9=Bill Carlisle - A Rusty Old Halo
TTITLE10=Archie Campbell - Most Richly Blessed
TTITLE11=Don Gibson - God Walks These Hills
EXTD=recorded at the Historic Ryman Auditorium 1964-67
EXTT0=
EXTT1=
EXTT2=
EXTT3=
EXTT4=
EXTT5=
EXTT6=
EXTT7=
EXTT8=
EXTT9=
EXTT10=
EXTT11=
PLAYORDER=
